<mxfile host="app.diagrams.net" modified="2023-12-27T14:45:00.190Z" agent="Mozilla/5.0 (Windows NT 10.0; Win64; x64; rv:121.0) Gecko/20100101 Firefox/121.0" etag="DdH7Dn3-BXXB7SuTjZx9" version="22.1.13" type="device">
  <diagram name="PÃ¡gina-1" id="OfisZz09JNyDXLVMn3W0">
    <mxGraphModel dx="1194" dy="716" grid="1" gridSize="10" guides="1" tooltips="1" connect="1" arrows="1" fold="1" page="1" pageScale="1" pageWidth="827" pageHeight="1169" math="0" shadow="0">
      <root>
        <mxCell id="0" />
        <mxCell id="1" parent="0" />
        <mxCell id="ZeQsi3ed15G19DFZr-Qj-25" value="" style="rounded=0;whiteSpace=wrap;html=1;strokeWidth=4;" vertex="1" parent="1">
          <mxGeometry x="827" y="155" width="60" height="55" as="geometry" />
        </mxCell>
        <mxCell id="ZeQsi3ed15G19DFZr-Qj-21" value="" style="shape=flexArrow;endArrow=classic;html=1;rounded=0;strokeWidth=3;endSize=28.92;startSize=6;endWidth=61;width=58;fillColor=#ffe6cc;strokeColor=#d79b00;" edge="1" parent="1">
          <mxGeometry width="50" height="50" relative="1" as="geometry">
            <mxPoint x="912" y="181.75" as="sourcePoint" />
            <mxPoint x="1112" y="182" as="targetPoint" />
          </mxGeometry>
        </mxCell>
        <mxCell id="ZeQsi3ed15G19DFZr-Qj-1" value="" style="rounded=0;whiteSpace=wrap;html=1;strokeWidth=3;" vertex="1" parent="1">
          <mxGeometry x="240" y="120" width="460" height="120" as="geometry" />
        </mxCell>
        <mxCell id="ZeQsi3ed15G19DFZr-Qj-2" value="" style="rounded=0;whiteSpace=wrap;html=1;strokeWidth=3;fillColor=#dae8fc;strokeColor=#6c8ebf;" vertex="1" parent="1">
          <mxGeometry x="42" y="166" width="30" height="30" as="geometry" />
        </mxCell>
        <mxCell id="ZeQsi3ed15G19DFZr-Qj-3" value="" style="rounded=0;whiteSpace=wrap;html=1;strokeWidth=3;fillColor=#d5e8d4;strokeColor=#82b366;" vertex="1" parent="1">
          <mxGeometry x="100" y="166" width="30" height="30" as="geometry" />
        </mxCell>
        <mxCell id="ZeQsi3ed15G19DFZr-Qj-4" value="" style="rounded=0;whiteSpace=wrap;html=1;strokeWidth=3;fillColor=#f8cecc;strokeColor=#b85450;" vertex="1" parent="1">
          <mxGeometry x="160" y="165" width="30" height="30" as="geometry" />
        </mxCell>
        <mxCell id="ZeQsi3ed15G19DFZr-Qj-5" value="" style="shape=flexArrow;endArrow=classic;html=1;rounded=0;strokeWidth=4;fillColor=#ffe6cc;strokeColor=#d79b00;" edge="1" parent="1">
          <mxGeometry width="50" height="50" relative="1" as="geometry">
            <mxPoint x="210" y="179.5" as="sourcePoint" />
            <mxPoint x="280" y="179.5" as="targetPoint" />
          </mxGeometry>
        </mxCell>
        <mxCell id="ZeQsi3ed15G19DFZr-Qj-6" value="" style="rounded=0;whiteSpace=wrap;html=1;strokeWidth=3;fillColor=#dae8fc;strokeColor=#6c8ebf;" vertex="1" parent="1">
          <mxGeometry x="300" y="167" width="30" height="30" as="geometry" />
        </mxCell>
        <mxCell id="ZeQsi3ed15G19DFZr-Qj-8" value="" style="rounded=0;whiteSpace=wrap;html=1;strokeWidth=3;fillColor=#d5e8d4;strokeColor=#82b366;" vertex="1" parent="1">
          <mxGeometry x="349" y="166" width="30" height="30" as="geometry" />
        </mxCell>
        <mxCell id="ZeQsi3ed15G19DFZr-Qj-10" value="" style="rounded=0;whiteSpace=wrap;html=1;strokeWidth=3;fillColor=#f8cecc;strokeColor=#b85450;" vertex="1" parent="1">
          <mxGeometry x="400" y="165" width="30" height="30" as="geometry" />
        </mxCell>
        <mxCell id="ZeQsi3ed15G19DFZr-Qj-11" value="" style="rounded=0;whiteSpace=wrap;html=1;strokeWidth=3;fillColor=#dae8fc;strokeColor=#6c8ebf;" vertex="1" parent="1">
          <mxGeometry x="450" y="165" width="30" height="30" as="geometry" />
        </mxCell>
        <mxCell id="ZeQsi3ed15G19DFZr-Qj-12" value="" style="rounded=0;whiteSpace=wrap;html=1;strokeWidth=3;fillColor=#d5e8d4;strokeColor=#82b366;" vertex="1" parent="1">
          <mxGeometry x="500" y="165" width="30" height="30" as="geometry" />
        </mxCell>
        <mxCell id="ZeQsi3ed15G19DFZr-Qj-13" value="" style="rounded=0;whiteSpace=wrap;html=1;strokeWidth=3;fillColor=#f8cecc;strokeColor=#b85450;" vertex="1" parent="1">
          <mxGeometry x="552" y="165" width="30" height="30" as="geometry" />
        </mxCell>
        <mxCell id="ZeQsi3ed15G19DFZr-Qj-15" value="" style="shape=flexArrow;endArrow=classic;html=1;rounded=0;strokeWidth=4;fillColor=#ffe6cc;strokeColor=#d79b00;" edge="1" parent="1">
          <mxGeometry width="50" height="50" relative="1" as="geometry">
            <mxPoint x="600" y="179.5" as="sourcePoint" />
            <mxPoint x="670" y="179.5" as="targetPoint" />
          </mxGeometry>
        </mxCell>
        <mxCell id="ZeQsi3ed15G19DFZr-Qj-16" value="" style="rounded=0;whiteSpace=wrap;html=1;strokeWidth=3;fillColor=#dae8fc;strokeColor=#6c8ebf;" vertex="1" parent="1">
          <mxGeometry x="841" y="166" width="30" height="30" as="geometry" />
        </mxCell>
        <mxCell id="ZeQsi3ed15G19DFZr-Qj-18" value="" style="rounded=0;whiteSpace=wrap;html=1;strokeWidth=3;fillColor=#dae8fc;strokeColor=#6c8ebf;" vertex="1" parent="1">
          <mxGeometry x="932" y="166" width="30" height="30" as="geometry" />
        </mxCell>
        <mxCell id="ZeQsi3ed15G19DFZr-Qj-19" value="" style="rounded=0;whiteSpace=wrap;html=1;strokeWidth=3;fillColor=#d5e8d4;strokeColor=#82b366;" vertex="1" parent="1">
          <mxGeometry x="982" y="166" width="30" height="30" as="geometry" />
        </mxCell>
        <mxCell id="ZeQsi3ed15G19DFZr-Qj-20" value="" style="rounded=0;whiteSpace=wrap;html=1;strokeWidth=3;fillColor=#f8cecc;strokeColor=#b85450;" vertex="1" parent="1">
          <mxGeometry x="1033" y="166" width="30" height="30" as="geometry" />
        </mxCell>
        <mxCell id="ZeQsi3ed15G19DFZr-Qj-22" value="" style="shape=flexArrow;endArrow=classic;html=1;rounded=0;strokeWidth=4;fillColor=#ffe6cc;strokeColor=#d79b00;" edge="1" parent="1">
          <mxGeometry width="50" height="50" relative="1" as="geometry">
            <mxPoint x="740" y="181.5" as="sourcePoint" />
            <mxPoint x="810" y="181.5" as="targetPoint" />
          </mxGeometry>
        </mxCell>
        <mxCell id="ZeQsi3ed15G19DFZr-Qj-23" value="" style="ellipse;whiteSpace=wrap;html=1;aspect=fixed;strokeWidth=4;fillColor=#60a917;strokeColor=#2D7600;fontColor=#ffffff;" vertex="1" parent="1">
          <mxGeometry x="685" y="165" width="30" height="30" as="geometry" />
        </mxCell>
        <mxCell id="ZeQsi3ed15G19DFZr-Qj-24" value="OUTPUT LINE" style="text;html=1;strokeColor=none;fillColor=none;align=center;verticalAlign=middle;whiteSpace=wrap;rounded=0;fontSize=15;fontStyle=1" vertex="1" parent="1">
          <mxGeometry x="940" y="100" width="60" height="30" as="geometry" />
        </mxCell>
        <mxCell id="ZeQsi3ed15G19DFZr-Qj-26" value="TRANSMITE QUEUE" style="text;html=1;strokeColor=none;fillColor=none;align=center;verticalAlign=middle;whiteSpace=wrap;rounded=0;fontSize=15;fontStyle=1" vertex="1" parent="1">
          <mxGeometry x="826" y="100" width="60" height="30" as="geometry" />
        </mxCell>
      </root>
    </mxGraphModel>
  </diagram>
</mxfile>
